<?xml version="1.0" encoding="utf-8"?>
<!-- Generator: Adobe Illustrator 19.0.0, SVG Export Plug-In . SVG Version: 6.00 Build 0)  -->
<svg version="1.1" id="Layer_1" xmlns="http://www.w3.org/2000/svg" xmlns:xlink="http://www.w3.org/1999/xlink" x="0px" y="0px"
	 viewBox="0 0 500 500" style="enable-background:new 0 0 500 500;" xml:space="preserve">
<style type="text/css">
	.st0{fill:#909599;}
	.st1{fill:url(#XMLID_58_);}
	.st2{fill:url(#XMLID_59_);}
	.st3{fill:url(#XMLID_63_);}
	.st4{fill:url(#XMLID_64_);}
	.st5{fill:url(#XMLID_65_);}
	.st6{fill:#004B7D;}
</style>
<g id="XMLID_1_">
	<path id="XMLID_3_" class="st0" d="M280.3,261.4l-1.7,2.9c-1.5-3-4.5-3-4.5-3c-2.4-0.1-4.1,1.4-4,3.4c0.1,2.7,2.5,3.6,5.2,4.7
		c3,1.2,6.1,3,6.4,6.7c0.4,4.5-3.6,7.7-9.1,7.6c-5.4-0.1-8-3.7-8-3.7l1.5-3.4c0,0,1.7,4.8,7.5,4.9c2.6,0.1,4.5-1.9,4.4-4.4
		c-0.1-2.7-2.4-3.6-5.1-4.6c-3-1.2-6.4-2.5-6.5-6.7c-0.1-4.2,3.1-6.8,8.3-6.6C274.6,259,277.9,259,280.3,261.4"/>
	<path id="XMLID_4_" class="st0" d="M162.4,229.2l-1.7,2.9c-1.5-3-4.5-3-4.5-3c-2.4-0.1-4.1,1.4-4,3.4c0.1,2.7,2.5,3.6,5.2,4.7
		c3,1.2,6.1,3,6.4,6.7c0.4,4.5-3.6,7.7-9.1,7.6c-5.4-0.1-8-3.7-8-3.7l1.5-3.4c0,0,1.7,4.8,7.5,4.9c2.6,0.1,4.5-1.9,4.4-4.4
		c-0.1-2.7-2.4-3.6-5.1-4.6c-3-1.2-6.4-2.5-6.6-6.7c-0.1-4.2,3.1-6.8,8.3-6.6C156.8,226.8,160.1,226.8,162.4,229.2"/>
	<path id="XMLID_5_" class="st0" d="M239.1,229.4l-0.3-0.2c-0.5-0.3-3.6-2.2-8.8-2.2c-8,0-13,4.8-13,12.1c0,7.5,4.7,12.1,12.5,12.1
		c3.1,0,6.1-0.5,9.1-1.5l0.3-0.1v-9.2h-3.7l0,7.7c-1.6,0.8-3.4,1-4.7,1c-6.1,0-9.4-3.6-9.4-10.1c0-6.1,3.2-9.9,8.8-9.9
		c2.8,0,5.8,1.2,7.5,3.1l0.1,0.1L239.1,229.4z"/>
	<path id="XMLID_6_" class="st0" d="M283.5,227.4h-3.7l-6,10.7l-6-10.7h-4.6l8.4,13.6v9.8h3.7c0,0,0-9.8,0-10L283.5,227.4z"/>
	<path id="XMLID_7_" class="st0" d="M327.9,259.6h-3.7l-6,10.7l-6-10.7h-4.7l8.4,13.6v9.8h3.7c0,0,0-9.8,0-10L327.9,259.6z"/>
	<path id="XMLID_8_" class="st0" d="M254.5,238.3l10.8-10.8h-3.8l-10.1,10.2c0-0.7,0-10.2,0-10.2h-3.7v23.3h3.7l0-11.3l9.5,11.3
		l4.7,0L254.5,238.3z"/>
	<path id="XMLID_9_" class="st0" d="M347.4,238.3l10.8-10.8h-3.8l-10.1,10.2c0-0.7,0-10.2,0-10.2h-3.7v23.4h3.7l0-11.3l9.5,11.3
		l4.7,0L347.4,238.3z"/>
	<polygon id="XMLID_10_" class="st0" points="364.7,250.8 367.5,250.8 373.7,232.8 379.5,250.8 382.7,250.8 390.5,227.4 
		387.2,227.4 381,245.9 375,227.4 372.9,227.4 366.7,245.9 361.1,227.4 357.2,227.4 	"/>
	<path id="XMLID_13_" class="st0" d="M398.4,232.4c0.6,1.3,2.4,6.4,2.8,7.3h-5.7L398.4,232.4z M399.6,227.1h-1.7l-10,23.7l3.2,0
		l3.7-8.9h7.2l3.6,8.9h4.4L399.6,227.1z"/>
	<polygon id="XMLID_14_" class="st0" points="200.2,259.6 200.2,283 203.9,283 203.9,259.6 	"/>
	<rect id="XMLID_15_" x="285.8" y="259.6" class="st0" width="3.7" height="23.3"/>
	<path id="XMLID_16_" class="st0" d="M165.4,272.7c0,5.8-2.4,8.3-6.8,8.3c-5,0-6.7-2.3-6.7-8.4v-13h-3.7l0,13.4c0,2.9,0.3,6,2.5,7.9
		c1.8,1.7,4.4,2.5,7.7,2.5c6.3,0,9.8-3.5,9.8-9.8v-13.9h-2.7L165.4,272.7z"/>
	<path id="XMLID_17_" class="st0" d="M302.2,240.5c0,5.8-2.4,8.3-6.8,8.3c-5,0-6.7-2.3-6.7-8.4v-13h-3.7l0,13.4c0,2.9,0.4,6,2.5,7.9
		c1.8,1.7,4.4,2.5,7.7,2.5c6.3,0,9.8-3.5,9.8-9.8v-13.9h-2.7L302.2,240.5z"/>
	<path id="XMLID_18_" class="st0" d="M184.4,240.5c0,5.8-2.4,8.3-6.8,8.3c-5,0-6.7-2.3-6.7-8.4v-13h-3.7l0,13.4c0,2.9,0.3,6,2.5,7.9
		c1.8,1.7,4.4,2.6,7.7,2.6c6.3,0,9.8-3.6,9.8-10v-13.9h-2.7L184.4,240.5z"/>
	<polygon id="XMLID_19_" class="st0" points="216,283 218.1,283 227.9,259.6 224.6,259.6 217.2,278.2 209.8,259.6 205.7,259.6 	"/>
	<polygon id="XMLID_20_" class="st0" points="233.6,280.3 233.6,271.7 241.7,271.7 241.7,269.4 233.6,269.4 233.6,261.7 
		242.4,261.7 242.4,259.6 229.9,259.6 229.9,283 242.7,283 242.7,280.3 	"/>
	<polygon id="XMLID_21_" class="st0" points="292,259.6 292,261.6 299.3,261.6 299.3,283 303,283 303,261.6 309.9,261.6 
		309.9,259.6 	"/>
	<path id="XMLID_24_" class="st0" d="M251,269.4v-7.8l3.5,0c2.9,0,4.2,1.7,4.1,3.8c-0.1,2.2-1.2,3.9-4.6,4L251,269.4z M247.3,283
		l3.7,0l0-11.4l10,11.4h4l-10-11.3c3.9-0.2,7.2-2.8,7.2-6.2c0-3.9-2.4-5.8-7.6-5.8h-7.4V283z"/>
	<path id="XMLID_25_" class="st0" d="M212.9,227.4h-2.7V244c-5.8-6.2-16.1-16.6-16.1-16.6h-1.9v23.3h2.7v-17.5l16.4,17.5l1.6,0
		L212.9,227.4z"/>
	<path id="XMLID_26_" class="st0" d="M330.9,227.4h-2.7V244c-5.8-6.2-16.1-16.6-16.1-16.6h-1.9v23.3h2.7v-17.5l16.4,17.5l1.6,0
		L330.9,227.4z"/>
	<path id="XMLID_27_" class="st0" d="M432.5,227.4h-2.7V244c-5.8-6.2-16.1-16.6-16.1-16.6h-1.9v23.3h2.7v-17.5l16.4,17.5l1.6,0
		L432.5,227.4z"/>
	<path id="XMLID_28_" class="st0" d="M194.2,259.6h-2.7v16.6c-5.8-6.2-16.1-16.6-16.1-16.6h-1.9V283h2.7v-17.5l16.4,17.5l1.6,0
		L194.2,259.6z"/>
	
		<linearGradient id="XMLID_58_" gradientUnits="userSpaceOnUse" x1="0.6009" y1="-0.2991" x2="1.7565" y2="-0.2991" gradientTransform="matrix(-25.2792 -14.3008 14.3008 -25.2792 134.462 251.5804)">
		<stop  offset="0" style="stop-color:#FFFFFF"/>
		<stop  offset="0.2" style="stop-color:#E8EC8F"/>
		<stop  offset="0.76" style="stop-color:#ABCD03"/>
		<stop  offset="1" style="stop-color:#8FC41E"/>
	</linearGradient>
	<path id="XMLID_29_" class="st1" d="M83.1,222.9c-13.1,13.1-13.8,34-2.2,48c3-4,7.2-8.6,12.3-12.1c4-2.8,9.5-5.6,13.9-6
		c4.2-0.4,10.5,0,14.2,1.8c-3-3-6.1-6.4-7.6-8.5c-2-2.6-3.2-5.9-3.2-9.5c0-8.7,7.1-15.8,15.8-15.8c2.1,0,4.1,0.4,6,1.2
		c-6.8-6.3-15.5-9.4-24.1-9.4C99.1,212.5,90,215.9,83.1,222.9"/>
	
		<linearGradient id="XMLID_59_" gradientUnits="userSpaceOnUse" x1="0.6403" y1="-0.3456" x2="1.796" y2="-0.3456" gradientTransform="matrix(-23.5702 -15.7636 15.7636 -23.5702 133.0532 241.6079)">
		<stop  offset="0" style="stop-color:#E5EB91"/>
		<stop  offset="0.2" style="stop-color:#C8DB58"/>
		<stop  offset="0.4" style="stop-color:#A2C80F"/>
		<stop  offset="1" style="stop-color:#66B22F"/>
	</linearGradient>
	<path id="XMLID_30_" class="st2" d="M84.2,221.8l25.2,26.2l0.1,0L92.8,216C89.7,217.5,86.8,219.4,84.2,221.8"/>
	
		<linearGradient id="XMLID_63_" gradientUnits="userSpaceOnUse" x1="0.6601" y1="-0.301" x2="1.8158" y2="-0.301" gradientTransform="matrix(-23.5644 -15.7597 15.7597 -23.5644 136.5252 237.4154)">
		<stop  offset="0" style="stop-color:#E5EB91"/>
		<stop  offset="0.2" style="stop-color:#C8DB58"/>
		<stop  offset="0.4" style="stop-color:#A2C80F"/>
		<stop  offset="1" style="stop-color:#66B22F"/>
	</linearGradient>
	<path id="XMLID_31_" class="st3" d="M103.1,212.8l6.4,35.3l0,0h0l2.2-35.5c-1.2-0.1-2.4-0.2-3.5-0.2
		C106.5,212.5,104.8,212.6,103.1,212.8"/>
	
		<linearGradient id="XMLID_64_" gradientUnits="userSpaceOnUse" x1="0.6501" y1="-0.4188" x2="1.8058" y2="-0.4188" gradientTransform="matrix(-23.5729 -15.7654 15.7654 -23.5729 124.7071 254.595)">
		<stop  offset="0" style="stop-color:#E5EB91"/>
		<stop  offset="0.2" style="stop-color:#C8DB58"/>
		<stop  offset="0.4" style="stop-color:#A2C80F"/>
		<stop  offset="1" style="stop-color:#66B22F"/>
	</linearGradient>
	<path id="XMLID_32_" class="st4" d="M72.8,244.7l36.7,3.4l-0.1-0.1L75,235.3C73.8,238.4,73.1,241.5,72.8,244.7"/>
	
		<linearGradient id="XMLID_65_" gradientUnits="userSpaceOnUse" x1="0.641" y1="-0.4328" x2="1.7967" y2="-0.4328" gradientTransform="matrix(-23.5699 -15.7633 15.7633 -23.5699 121.3526 259.1347)">
		<stop  offset="0" style="stop-color:#E5EB91"/>
		<stop  offset="0.2" style="stop-color:#C8DB58"/>
		<stop  offset="0.4" style="stop-color:#A2C80F"/>
		<stop  offset="1" style="stop-color:#66B22F"/>
	</linearGradient>
	<path id="XMLID_33_" class="st5" d="M73,253.2c0.4,2.5,1,4.9,1.9,7.3l34.5-12.2L73,253.2z"/>
	<path id="XMLID_34_" class="st0" d="M97.2,268.8c0,0,1-0.4,1.2-0.6l0,6.8h1.2v-8l-0.2-0.1l-0.1,0c-0.9,0.4-1.8,0.9-2.6,1.2
		L97.2,268.8z"/>
	<path id="XMLID_35_" class="st0" d="M103.7,271c1,0,1.5,0.5,1.5,1.6c0,1.1-0.7,1.8-1.7,1.8c-0.8,0-1.3-0.5-1.4-0.7l-0.2-0.2
		l-0.3,1.1l0.1,0c0.4,0.2,1,0.4,1.8,0.4c1.7,0,3-1.1,3-2.5c0-1.3-1-1.7-1.7-1.8c0.7-0.3,1.3-0.9,1.3-1.9c0-1.1-0.9-1.8-2.3-1.8
		c-1.2,0-1.8,0.8-1.8,0.8l0.5,0.9l0.1-0.3c0.1-0.4,0.6-0.8,1.2-0.8c0.5,0,1.1,0.3,1.1,1.3c0,0.7-0.2,1.6-1.2,1.6l-0.6-0.1v0.8
		C103,271.1,103.4,271,103.7,271"/>
	<path id="XMLID_38_" class="st0" d="M110.3,271.2c-0.9,0-1.3-0.6-1.3-1.7c0-1.2,0.6-1.9,1.4-1.9c0.8,0,1.4,0.7,1.4,1.6
		C111.8,270.1,111.3,271.2,110.3,271.2 M108.1,273.4l0.3,1.3c0,0,0.5,0.3,1.2,0.3c2,0,3.5-1.9,3.5-4.7c0-3.1-1.9-3.4-2.7-3.4
		c-1.6,0-2.6,1-2.6,2.5c0,1.5,0.9,2.4,2.3,2.4c0.7,0,1.3-0.3,1.7-0.8c-0.1,1.7-0.8,3.3-2.2,3.3C108.6,274.3,108.1,273.4,108.1,273.4
		"/>
	<path id="XMLID_42_" class="st0" d="M116.8,274.3c-0.8,0-1.4-0.7-1.4-1.8c0-1.1,0.6-1.8,1.4-1.8c0.8,0,1.4,0.7,1.4,1.8
		C118.3,273.6,117.7,274.3,116.8,274.3 M115.8,268.8c0-0.3,0.1-1.3,1.1-1.3c1,0,1.1,0.9,1.1,1.3c0,0.3-0.1,1.3-1.1,1.3
		C115.9,270.2,115.8,269.1,115.8,268.8 M118,270.4c0.7-0.3,1.1-0.9,1.1-1.7c0-0.8-0.6-1.8-2.3-1.8c-1.3,0-2.3,0.8-2.3,1.9
		c0,0.8,0.6,1.4,1.2,1.6c-1,0.4-1.6,1.2-1.6,2.2c0,1.4,1.1,2.3,2.7,2.3c1.5,0,2.7-1.1,2.7-2.6C119.5,271,118.5,270.5,118,270.4"/>
	<path id="XMLID_43_" class="st6" d="M81.1,279.5c-1-0.9-2.8-2.6-4.4-4.6c-7.3-8.2-15.6-29.5-1.8-48.9c5.7-8,13.9-13.4,22-15.6
		c18.9-5.1,33.5,3.9,40.2,11.1c0.7,0.8,0.6,1.8,0.1,2.3c-0.8,0.7-1.6,0.3-3.2-0.2c-2.6-0.8-4.8-0.9-7.2-0.6
		c-5.6,0.7-10.4,5.9-9.7,13.1c0.6,6.6,5.7,11.3,9.3,14.5c12.5,11,8.3,22.8,7.3,25.4c-3.5,8.8-12.3,15-23.8,15
		c-4.8,0-11.7-1.2-18.6-5.6c-0.3-0.1-0.5-0.5-0.2-1.1c0.5-1.3,2.7-5.2,3.7-6.4c3.4,4,9.3,7.7,15.7,8c8.8,0.3,14.5-4.5,16.6-10.5
		c2.3-6.8-0.2-13.8-6.8-20c-5.7-5.4-10.8-10.4-11.1-19c-0.4-11,9.2-17.5,18.1-17.1c0.3,0-12.3-9-28.4-3.6
		c-7.9,2.6-12.6,7.3-14.9,9.9c-0.3,0.4-0.1,0.7,0,0.9c0.2,0.4,5.7,8,5.7,8l-9.9-2.3c0,0-0.4-0.1-0.6,0.2c-3.1,5.4-7.8,21.1,2.6,35.3
		c0,0,8.8-13.9,26.3-15.1c1.2-0.1,1,0.3,0.3,0.6c-15.6,5.7-21.8,17.2-25.7,26C82.3,279.9,81.6,280,81.1,279.5"/>
</g>
</svg>
